<svg width="24" height="24" viewBox="0 0 24 24" fill="none" xmlns="http://www.w3.org/2000/svg">
<path d="M12 0.970001C14.1821 0.969576 16.3154 1.61629 18.1299 2.82836C19.9445 4.04042 21.3589 5.76338 22.1941 7.77934C23.0294 9.79528 23.248 12.0136 22.8225 14.1539C22.3968 16.2941 21.346 18.2601 19.8031 19.803C18.2601 21.346 16.2941 22.3968 14.1539 22.8225C12.0136 23.248 9.79529 23.0294 7.77934 22.1941C5.7634 21.3589 4.04043 19.9445 2.82836 18.1299C1.6163 16.3154 0.969581 14.1821 0.970007 12C0.973999 9.07588 2.13737 6.27268 4.20502 4.20502C6.27269 2.13736 9.07589 0.973994 12 0.970001ZM12 0C9.62663 0 7.30655 0.703788 5.33316 2.02236C3.35978 3.34094 1.8217 5.21509 0.913451 7.40779C0.00519947 9.60051 -0.23244 12.0133 0.230582 14.3411C0.693605 16.6689 1.8365 18.807 3.51473 20.4853C5.19295 22.1636 7.33115 23.3064 9.65892 23.7694C11.9867 24.2325 14.3995 23.9948 16.5922 23.0866C18.7849 22.1783 20.6591 20.6402 21.9777 18.6669C23.2963 16.6934 24 14.3734 24 12C24 8.8174 22.7357 5.76516 20.4853 3.51472C18.2349 1.26429 15.1826 0 12 0Z" fill="black"/>
<path d="M18.3223 12L8.34851 5.44493C8.36144 15.327 8.34851 10.4782 8.34851 18.555L18.3223 12Z" fill="black"/>
</svg>
