<svg width="39" height="31" viewBox="0 0 39 31" fill="none" xmlns="http://www.w3.org/2000/svg">
<path d="M17.86 0L3.63 10.7673V19.7057L17.86 30.473C17.83 7.502 17.86 18.7757 17.86 0Z" fill="#B3B3B3"/>
<path d="M0 22.8386H7.47V8H0V22.8386Z" fill="#B3B3B3"/>
<path fill-rule="evenodd" clip-rule="evenodd" d="M37.2344 10.182C37.8202 10.7677 37.8202 11.7175 37.2344 12.3033L28.0421 21.4957C27.4563 22.0814 26.5065 22.0814 25.9207 21.4957C25.335 20.9099 25.3349 19.9601 25.9207 19.3743L35.1131 10.182C35.6989 9.59617 36.6487 9.59617 37.2344 10.182Z" fill="#B3B3B3"/>
<path fill-rule="evenodd" clip-rule="evenodd" d="M26.2344 10.0607C26.8202 9.47487 27.77 9.47487 28.3558 10.0607L37.5482 19.253C38.1339 19.8388 38.1339 20.7886 37.5482 21.3744C36.9624 21.9602 36.0126 21.9602 35.4268 21.3744L26.2344 12.182C25.6487 11.5962 25.6487 10.6464 26.2344 10.0607Z" fill="#B3B3B3"/>
</svg>
