<svg width="39" height="31" viewBox="0 0 39 31" fill="none" xmlns="http://www.w3.org/2000/svg">
<path d="M17.86 0L3.63 10.7673V19.7057L17.86 30.473C17.83 7.502 17.86 18.7757 17.86 0Z" fill="#B3B3B3"/>
<path d="M0 22.6505H7.47V7.81189H0V22.6505Z" fill="#B3B3B3"/>
<path fill-rule="evenodd" clip-rule="evenodd" d="M37.2344 8.18195C37.8202 8.76774 37.8202 9.71749 37.2344 10.3033L28.0421 19.4957C27.4563 20.0814 26.5065 20.0814 25.9207 19.4957C25.335 18.9099 25.3349 17.9601 25.9207 17.3743L35.1131 8.18195C35.6989 7.59617 36.6487 7.59617 37.2344 8.18195Z" fill="#B3B3B3"/>
<path fill-rule="evenodd" clip-rule="evenodd" d="M26.2344 8.06066C26.8202 7.47487 27.77 7.47487 28.3558 8.06066L37.5482 17.253C38.1339 17.8388 38.1339 18.7886 37.5482 19.3744C36.9624 19.9602 36.0126 19.9602 35.4268 19.3744L26.2344 10.182C25.6487 9.59619 25.6487 8.64645 26.2344 8.06066Z" fill="#B3B3B3"/>
</svg>
