<svg width="38" height="31" viewBox="0 0 38 31" fill="none" xmlns="http://www.w3.org/2000/svg">
<path d="M17.86 0L3.63 10.7673V19.7057L17.86 30.473C17.83 7.502 17.86 18.7757 17.86 0Z" fill="#B3B3B3"/>
<path d="M-3.05176e-05 22.6506H7.46997V7.81192H-3.05176e-05V22.6506Z" fill="#B3B3B3"/>
<path d="M27 30.1112C26.6559 30.1121 26.3193 30.0075 26.0328 29.8106C25.7462 29.6139 25.5225 29.3337 25.39 29.0056C25.2993 28.7858 25.2514 28.5496 25.249 28.3106C25.2467 28.0716 25.2899 27.8346 25.3763 27.6128C25.4627 27.3912 25.5905 27.1893 25.7524 27.0187C25.9143 26.8481 26.1072 26.7121 26.32 26.6186C27.7344 25.999 29.0184 25.1004 30.1 23.9732C32.3328 21.6526 33.5873 18.5139 33.59 15.2416C33.5793 11.9648 32.3138 8.8255 30.07 6.50988C28.9863 5.38258 27.7031 4.48099 26.29 3.85421C25.8627 3.66524 25.5251 3.30926 25.3509 2.86399C25.1766 2.41873 25.1799 1.92032 25.36 1.47755C25.4463 1.25658 25.5746 1.05579 25.7375 0.887116C25.9003 0.718439 26.0943 0.585318 26.308 0.495667C26.5216 0.406016 26.7505 0.361666 26.9811 0.365253C27.2116 0.36884 27.4391 0.420291 27.65 0.516547C31.3419 2.14441 34.2782 5.18963 35.84 9.01055C36.6452 10.9716 37.0601 13.0802 37.06 15.2106C37.059 17.3398 36.6477 19.4473 35.85 21.4106C35.077 23.3084 33.9526 25.0319 32.54 26.4842C31.1475 27.9659 29.4858 29.1493 27.65 29.9666C27.4453 30.0604 27.224 30.1097 27 30.1112Z" fill="#B3B3B3"/>
<path d="M23.69 22.8161C23.3094 22.8156 22.9407 22.6792 22.6463 22.4299C22.3519 22.1807 22.1499 21.834 22.0746 21.4485C21.9992 21.0629 22.0552 20.6624 22.233 20.3147C22.4107 19.967 22.6994 19.6934 23.05 19.5404C23.8656 19.1823 24.5606 18.5833 25.0481 17.8186C25.5355 17.0538 25.7936 16.1574 25.79 15.2418C25.7935 14.6206 25.6744 14.0053 25.44 13.4334C25.2031 12.8781 24.8634 12.3761 24.44 11.9558C24.0312 11.5205 23.5458 11.1698 23.01 10.9224C22.6564 10.7185 22.3883 10.3866 22.2574 9.99053C22.1264 9.59454 22.1419 9.1625 22.3009 8.7776C22.4598 8.3927 22.7509 8.08218 23.1181 7.90583C23.4854 7.72947 23.9028 7.69976 24.29 7.82242C25.4625 8.34096 26.495 9.14728 27.2977 10.1714C28.1005 11.1955 28.6493 12.4066 28.8966 13.6996C29.1439 14.9925 29.0822 16.3283 28.7168 17.591C28.3515 18.8537 27.6935 20.0052 26.8 20.9458C26.0942 21.6828 25.2549 22.2692 24.33 22.6714C24.1282 22.7636 23.9106 22.8128 23.69 22.8161Z" fill="#B3B3B3"/>
</svg>
