<svg width="30" height="31" viewBox="0 0 30 31" fill="none" xmlns="http://www.w3.org/2000/svg">
<path d="M17.86 0L3.63 10.7673V19.7057L17.86 30.473C17.83 7.502 17.86 18.7757 17.86 0Z" fill="#B3B3B3"/>
<path d="M0 22.6506H7.47V7.81192H0V22.6506Z" fill="#B3B3B3"/>
<path d="M23.69 22.8161C23.3094 22.8156 22.9407 22.6792 22.6463 22.4299C22.3519 22.1807 22.1499 21.834 22.0746 21.4485C21.9992 21.0629 22.0552 20.6624 22.233 20.3147C22.4107 19.967 22.6994 19.6934 23.05 19.5404C23.8656 19.1823 24.5606 18.5833 25.0481 17.8186C25.5355 17.0538 25.7936 16.1574 25.79 15.2418C25.7935 14.6206 25.6744 14.0053 25.44 13.4334C25.2031 12.8781 24.8634 12.3761 24.44 11.9558C24.0312 11.5205 23.5458 11.1698 23.01 10.9224C22.6564 10.7185 22.3883 10.3866 22.2574 9.99053C22.1264 9.59454 22.1419 9.1625 22.3009 8.7776C22.4598 8.3927 22.7509 8.08218 23.1181 7.90583C23.4854 7.72947 23.9028 7.69976 24.29 7.82242C25.4625 8.34096 26.495 9.14728 27.2977 10.1714C28.1005 11.1955 28.6493 12.4066 28.8966 13.6996C29.1439 14.9925 29.0822 16.3283 28.7168 17.591C28.3515 18.8537 27.6935 20.0052 26.8 20.9458C26.0942 21.6828 25.2549 22.2692 24.33 22.6714C24.1282 22.7636 23.9106 22.8128 23.69 22.8161Z" fill="#B3B3B3"/>
</svg>
